<svg width="50" height="42" viewBox="0 0 50 42" fill="none" xmlns="http://www.w3.org/2000/svg">
<path d="M36.9375 0.84375C36.9375 6.50781 34.5781 6.82812 31.3125 7.28125C28.707 7.64062 25.5781 8.09375 24.4375 12H26.5625C27.4336 9.85938 29.2539 9.60156 31.5625 9.28125C34.8359 8.82812 38.9375 8.25 38.9375 0.84375H36.9375ZM4 14C1.79297 14 0 15.793 0 18V38C0 40.207 1.79297 42 4 42H46C48.207 42 50 40.207 50 38V18C50 15.793 48.207 14 46 14H4ZM5 20H9V24H5V20ZM11 20H15V24H11V20ZM17 20H21V24H17V20ZM23 20H27V24H23V20ZM29 20H33V24H29V20ZM35 20H39V24H35V20ZM41 20H45V24H41V20ZM5 26H12V30H5V26ZM14 26H18V30H14V26ZM20 26H24V30H20V26ZM26 26H30V30H26V26ZM32 26H36V30H32V26ZM38 26H45V30H38V26ZM5 32H9V36H5V32ZM11 32H15V36H11V32ZM17 32H33V36H17V32ZM35 32H39V36H35V32ZM41 32H45V36H41V32Z" fill="black"/>
</svg>
