<svg width="20" height="20" viewBox="0 0 20 20" fill="none" xmlns="http://www.w3.org/2000/svg">
<path fill-rule="evenodd" clip-rule="evenodd" d="M0 8C0 4.22876 0 2.34315 1.17157 1.17157C2.34315 0 4.22876 0 8 0H12C15.7712 0 17.6569 0 18.8284 1.17157C20 2.34315 20 4.22876 20 8V12C20 15.7712 20 17.6569 18.8284 18.8284C17.6569 20 15.7712 20 12 20H8C4.22876 20 2.34315 20 1.17157 18.8284C0 17.6569 0 15.7712 0 12V8ZM5.73867 14.4465C6.96118 13.5085 8.45906 13 10 13C11.5409 13 13.0388 13.5085 14.2613 14.4465C15.4838 15.3846 16.3627 16.6998 16.7615 18.1883C16.9044 18.7217 16.5878 19.2701 16.0544 19.413C15.5209 19.556 14.9726 19.2394 14.8296 18.7059C14.5448 17.6427 13.917 16.7033 13.0438 16.0332C12.1706 15.3632 11.1007 15 10 15C8.89933 15 7.82941 15.3632 6.95619 16.0332C6.08297 16.7033 5.45525 17.6427 5.17037 18.7059C5.02743 19.2394 4.47909 19.556 3.94563 19.413C3.41216 19.2701 3.09558 18.7217 3.23852 18.1883C3.63734 16.6998 4.51616 15.3846 5.73867 14.4465ZM8 7C8 5.89543 8.89543 5 10 5C11.1046 5 12 5.89543 12 7C12 8.10457 11.1046 9 10 9C8.89543 9 8 8.10457 8 7ZM10 3C7.79086 3 6 4.79086 6 7C6 9.20914 7.79086 11 10 11C12.2091 11 14 9.20914 14 7C14 4.79086 12.2091 3 10 3Z" fill="#222222"/>
</svg>
